<svg width="113" height="146" viewBox="0 0 113 146" fill="none" xmlns="http://www.w3.org/2000/svg">
<path d="M8.4502 121V108.203H12.0625C13.1758 108.203 14.1602 108.449 15.0156 108.941C15.8711 109.434 16.5303 110.134 16.9932 111.042C17.4619 111.95 17.6992 112.993 17.7051 114.171V114.988C17.7051 116.195 17.4707 117.253 17.002 118.161C16.5391 119.069 15.874 119.767 15.0068 120.253C14.1455 120.739 13.1406 120.988 11.9922 121H8.4502ZM10.1377 109.592V119.62H11.9131C13.2139 119.62 14.2246 119.216 14.9453 118.407C15.6719 117.599 16.0352 116.447 16.0352 114.953V114.206C16.0352 112.753 15.6924 111.625 15.0068 110.822C14.3271 110.014 13.3604 109.604 12.1064 109.592H10.1377ZM21.7744 121H20.1484V111.49H21.7744V121ZM20.0166 108.968C20.0166 108.704 20.0957 108.481 20.2539 108.3C20.418 108.118 20.6582 108.027 20.9746 108.027C21.291 108.027 21.5312 108.118 21.6953 108.3C21.8594 108.481 21.9414 108.704 21.9414 108.968C21.9414 109.231 21.8594 109.451 21.6953 109.627C21.5312 109.803 21.291 109.891 20.9746 109.891C20.6582 109.891 20.418 109.803 20.2539 109.627C20.0957 109.451 20.0166 109.231 20.0166 108.968ZM26.1514 121H24.5254V107.5H26.1514V121ZM32.708 121.176C31.4189 121.176 30.3701 120.754 29.5615 119.91C28.7529 119.061 28.3486 117.927 28.3486 116.509V116.21C28.3486 115.267 28.5273 114.426 28.8848 113.688C29.248 112.943 29.752 112.363 30.3965 111.947C31.0469 111.525 31.75 111.314 32.5059 111.314C33.7422 111.314 34.7031 111.722 35.3887 112.536C36.0742 113.351 36.417 114.517 36.417 116.034V116.711H29.9746C29.998 117.648 30.2705 118.407 30.792 118.987C31.3193 119.562 31.9873 119.849 32.7959 119.849C33.3701 119.849 33.8564 119.731 34.2549 119.497C34.6533 119.263 35.002 118.952 35.3008 118.565L36.2939 119.339C35.4971 120.563 34.3018 121.176 32.708 121.176ZM32.5059 112.65C31.8496 112.65 31.2988 112.891 30.8535 113.371C30.4082 113.846 30.1328 114.514 30.0273 115.375H34.791V115.252C34.7441 114.426 34.5215 113.787 34.123 113.336C33.7246 112.879 33.1855 112.65 32.5059 112.65ZM39.8359 111.49L39.8799 112.545C40.5771 111.725 41.5176 111.314 42.7012 111.314C44.0312 111.314 44.9365 111.824 45.417 112.844C45.7334 112.387 46.1436 112.018 46.6475 111.736C47.1572 111.455 47.7578 111.314 48.4492 111.314C50.5352 111.314 51.5957 112.419 51.6309 114.628V121H50.0049V114.725C50.0049 114.045 49.8496 113.538 49.5391 113.204C49.2285 112.864 48.707 112.694 47.9746 112.694C47.3711 112.694 46.8701 112.876 46.4717 113.239C46.0732 113.597 45.8418 114.08 45.7773 114.689V121H44.1426V114.769C44.1426 113.386 43.4658 112.694 42.1123 112.694C41.0459 112.694 40.3164 113.148 39.9238 114.057V121H38.2979V111.49H39.8359ZM55.6211 111.49L55.665 112.545C56.3623 111.725 57.3027 111.314 58.4863 111.314C59.8164 111.314 60.7217 111.824 61.2021 112.844C61.5186 112.387 61.9287 112.018 62.4326 111.736C62.9424 111.455 63.543 111.314 64.2344 111.314C66.3203 111.314 67.3809 112.419 67.416 114.628V121H65.79V114.725C65.79 114.045 65.6348 113.538 65.3242 113.204C65.0137 112.864 64.4922 112.694 63.7598 112.694C63.1562 112.694 62.6553 112.876 62.2568 113.239C61.8584 113.597 61.627 114.08 61.5625 114.689V121H59.9277V114.769C59.9277 113.386 59.251 112.694 57.8975 112.694C56.8311 112.694 56.1016 113.148 55.709 114.057V121H54.083V111.49H55.6211ZM75.748 121C75.6543 120.812 75.5781 120.479 75.5195 119.998C74.7637 120.783 73.8613 121.176 72.8125 121.176C71.875 121.176 71.1045 120.912 70.501 120.385C69.9033 119.852 69.6045 119.178 69.6045 118.363C69.6045 117.373 69.9795 116.605 70.7295 116.061C71.4854 115.51 72.5459 115.234 73.9111 115.234H75.4932V114.487C75.4932 113.919 75.3232 113.468 74.9834 113.134C74.6436 112.794 74.1426 112.624 73.4805 112.624C72.9004 112.624 72.4141 112.771 72.0215 113.063C71.6289 113.356 71.4326 113.711 71.4326 114.127H69.7979C69.7979 113.652 69.9648 113.195 70.2988 112.756C70.6387 112.311 71.0957 111.959 71.6699 111.701C72.25 111.443 72.8857 111.314 73.5771 111.314C74.6729 111.314 75.5312 111.59 76.1523 112.141C76.7734 112.686 77.0957 113.438 77.1191 114.399V118.776C77.1191 119.649 77.2305 120.344 77.4531 120.859V121H75.748ZM73.0498 119.761C73.5596 119.761 74.043 119.629 74.5 119.365C74.957 119.102 75.2881 118.759 75.4932 118.337V116.386H74.2188C72.2266 116.386 71.2305 116.969 71.2305 118.135C71.2305 118.645 71.4004 119.043 71.7402 119.33C72.0801 119.617 72.5166 119.761 73.0498 119.761ZM79.7383 121V108.203H84.124C85.5713 108.203 86.6729 108.493 87.4287 109.073C88.1846 109.653 88.5625 110.518 88.5625 111.666C88.5625 112.252 88.4043 112.779 88.0879 113.248C87.7715 113.717 87.3086 114.08 86.6992 114.338C87.3906 114.525 87.9238 114.88 88.2988 115.401C88.6797 115.917 88.8701 116.538 88.8701 117.265C88.8701 118.466 88.4834 119.389 87.71 120.033C86.9424 120.678 85.8408 121 84.4053 121H79.7383ZM81.9619 115.226V119.225H84.4316C85.1289 119.225 85.6738 119.052 86.0664 118.706C86.459 118.36 86.6553 117.88 86.6553 117.265C86.6553 115.935 85.9756 115.255 84.6162 115.226H81.9619ZM81.9619 113.591H84.1416C84.833 113.591 85.3721 113.436 85.7588 113.125C86.1514 112.809 86.3477 112.363 86.3477 111.789C86.3477 111.156 86.166 110.699 85.8027 110.418C85.4453 110.137 84.8857 109.996 84.124 109.996H81.9619V113.591ZM90.4873 116.157C90.4873 115.226 90.6719 114.388 91.041 113.644C91.4102 112.894 91.9287 112.319 92.5967 111.921C93.2646 111.517 94.0322 111.314 94.8994 111.314C96.1826 111.314 97.2227 111.728 98.0195 112.554C98.8223 113.38 99.2559 114.476 99.3203 115.841L99.3291 116.342C99.3291 117.279 99.1475 118.117 98.7842 118.855C98.4268 119.594 97.9111 120.165 97.2373 120.569C96.5693 120.974 95.7959 121.176 94.917 121.176C93.5752 121.176 92.5 120.73 91.6914 119.84C90.8887 118.943 90.4873 117.751 90.4873 116.263V116.157ZM92.623 116.342C92.623 117.32 92.8252 118.088 93.2295 118.645C93.6338 119.195 94.1963 119.471 94.917 119.471C95.6377 119.471 96.1973 119.189 96.5957 118.627C97 118.064 97.2021 117.241 97.2021 116.157C97.2021 115.196 96.9941 114.435 96.5781 113.872C96.168 113.31 95.6084 113.028 94.8994 113.028C94.2021 113.028 93.6484 113.307 93.2383 113.863C92.8281 114.414 92.623 115.24 92.623 116.342ZM103.812 109.179V111.49H105.49V113.072H103.812V118.381C103.812 118.744 103.882 119.008 104.022 119.172C104.169 119.33 104.427 119.409 104.796 119.409C105.042 119.409 105.291 119.38 105.543 119.321V120.974C105.057 121.108 104.588 121.176 104.137 121.176C102.496 121.176 101.676 120.271 101.676 118.46V113.072H100.111V111.49H101.676V109.179H103.812Z" fill="black"/>
<path d="M15.5078 137.447C15.4375 138.912 15.0771 140.069 14.4268 140.919C13.7764 141.763 12.8945 142.185 11.7812 142.185C10.7207 142.185 10.0117 141.733 9.6543 140.831C9.35547 141.276 9.00684 141.61 8.6084 141.833C8.21582 142.056 7.80273 142.167 7.36914 142.167C6.51367 142.167 5.86328 141.815 5.41797 141.112C4.97852 140.409 4.81152 139.469 4.91699 138.291C5.01074 137.336 5.24219 136.475 5.61133 135.707C5.98633 134.939 6.45801 134.348 7.02637 133.932C7.60059 133.51 8.20996 133.299 8.85449 133.299C9.34668 133.299 9.78027 133.36 10.1553 133.483C10.5361 133.606 10.9814 133.861 11.4912 134.248L11.0342 139.196C10.9229 140.356 11.2568 140.937 12.0361 140.937C12.6338 140.937 13.123 140.617 13.5039 139.979C13.8906 139.334 14.1016 138.502 14.1367 137.482C14.2363 135.32 13.8174 133.665 12.8799 132.517C11.9482 131.368 10.5449 130.794 8.66992 130.794C7.52148 130.794 6.50195 131.081 5.61133 131.655C4.72656 132.229 4.02344 133.062 3.50195 134.151C2.98047 135.235 2.69336 136.472 2.64062 137.86C2.57031 139.272 2.7373 140.491 3.1416 141.517C3.55176 142.536 4.17578 143.312 5.01367 143.846C5.85742 144.379 6.88574 144.646 8.09863 144.646C8.59082 144.646 9.10352 144.587 9.63672 144.47C10.1758 144.353 10.6328 144.194 11.0078 143.995L11.3418 145.199C10.9844 145.434 10.501 145.621 9.8916 145.762C9.28809 145.908 8.67871 145.981 8.06348 145.981C6.5752 145.981 5.29785 145.665 4.23145 145.032C3.16504 144.405 2.36523 143.494 1.83203 142.299C1.28125 141.062 1.03809 139.583 1.10254 137.86C1.17285 136.255 1.5332 134.813 2.18359 133.536C2.83398 132.253 3.72168 131.257 4.84668 130.548C5.97754 129.839 7.26367 129.484 8.70508 129.484C10.1641 129.484 11.418 129.807 12.4668 130.451C13.5215 131.09 14.3096 132.013 14.8311 133.22C15.3525 134.421 15.5781 135.83 15.5078 137.447ZM6.63965 138.291C6.56348 139.088 6.63379 139.694 6.85059 140.11C7.06738 140.521 7.41309 140.726 7.8877 140.726C8.2041 140.726 8.50293 140.588 8.78418 140.312C9.06543 140.031 9.29395 139.647 9.46973 139.161L9.86523 134.828C9.57227 134.717 9.28809 134.661 9.0127 134.661C8.3623 134.661 7.83203 134.969 7.42188 135.584C7.01172 136.193 6.75098 137.096 6.63965 138.291ZM17.002 137.175C17.002 135.71 17.3418 134.535 18.0215 133.65C18.7012 132.76 19.6123 132.314 20.7549 132.314C21.7627 132.314 22.5771 132.666 23.1982 133.369V128.5H25.334V142H23.4004L23.2949 141.016C22.6562 141.789 21.8037 142.176 20.7373 142.176C19.624 142.176 18.7217 141.728 18.0303 140.831C17.3447 139.935 17.002 138.716 17.002 137.175ZM19.1377 137.359C19.1377 138.326 19.3223 139.082 19.6914 139.627C20.0664 140.166 20.5967 140.436 21.2822 140.436C22.1553 140.436 22.7939 140.046 23.1982 139.267V135.206C22.8057 134.444 22.1729 134.063 21.2998 134.063C20.6084 134.063 20.0752 134.339 19.7002 134.89C19.3252 135.435 19.1377 136.258 19.1377 137.359ZM29.834 142H27.6982V132.49H29.834V142ZM27.5664 130.021C27.5664 129.692 27.6689 129.42 27.874 129.203C28.085 128.986 28.3838 128.878 28.7705 128.878C29.1572 128.878 29.4561 128.986 29.667 129.203C29.8779 129.42 29.9834 129.692 29.9834 130.021C29.9834 130.343 29.8779 130.612 29.667 130.829C29.4561 131.04 29.1572 131.146 28.7705 131.146C28.3838 131.146 28.085 131.04 27.874 130.829C27.6689 130.612 27.5664 130.343 27.5664 130.021ZM34.4395 142H32.3037V128.5H34.4395V142ZM40.9609 142.176C39.6074 142.176 38.5088 141.751 37.665 140.901C36.8271 140.046 36.4082 138.909 36.4082 137.491V137.228C36.4082 136.278 36.5898 135.432 36.9531 134.688C37.3223 133.938 37.8379 133.354 38.5 132.938C39.1621 132.522 39.9004 132.314 40.7148 132.314C42.0098 132.314 43.0088 132.728 43.7119 133.554C44.4209 134.38 44.7754 135.549 44.7754 137.061V137.922H38.5615C38.626 138.707 38.8867 139.328 39.3438 139.785C39.8066 140.242 40.3867 140.471 41.084 140.471C42.0625 140.471 42.8594 140.075 43.4746 139.284L44.626 140.383C44.2451 140.951 43.7354 141.394 43.0967 141.71C42.4639 142.021 41.752 142.176 40.9609 142.176ZM40.7061 134.028C40.1201 134.028 39.6455 134.233 39.2822 134.644C38.9248 135.054 38.6963 135.625 38.5967 136.357H42.666V136.199C42.6191 135.484 42.4287 134.945 42.0947 134.582C41.7607 134.213 41.2979 134.028 40.7061 134.028ZM48.4492 132.49L48.5107 133.483C49.1787 132.704 50.0928 132.314 51.2529 132.314C52.5244 132.314 53.3945 132.801 53.8633 133.773C54.5547 132.801 55.5273 132.314 56.7812 132.314C57.8301 132.314 58.6094 132.604 59.1191 133.185C59.6348 133.765 59.8984 134.62 59.9102 135.751V142H57.7744V135.812C57.7744 135.209 57.6426 134.767 57.3789 134.485C57.1152 134.204 56.6787 134.063 56.0693 134.063C55.583 134.063 55.1846 134.195 54.874 134.459C54.5693 134.717 54.3555 135.057 54.2324 135.479L54.2412 142H52.1055V135.742C52.0762 134.623 51.5049 134.063 50.3916 134.063C49.5361 134.063 48.9297 134.412 48.5723 135.109V142H46.4365V132.49H48.4492ZM64.1113 132.49L64.1729 133.483C64.8408 132.704 65.7549 132.314 66.915 132.314C68.1865 132.314 69.0566 132.801 69.5254 133.773C70.2168 132.801 71.1895 132.314 72.4434 132.314C73.4922 132.314 74.2715 132.604 74.7812 133.185C75.2969 133.765 75.5605 134.62 75.5723 135.751V142H73.4365V135.812C73.4365 135.209 73.3047 134.767 73.041 134.485C72.7773 134.204 72.3408 134.063 71.7314 134.063C71.2451 134.063 70.8467 134.195 70.5361 134.459C70.2314 134.717 70.0176 135.057 69.8945 135.479L69.9033 142H67.7676V135.742C67.7383 134.623 67.167 134.063 66.0537 134.063C65.1982 134.063 64.5918 134.412 64.2344 135.109V142H62.0986V132.49H64.1113ZM83.4473 142C83.3535 141.818 83.2715 141.522 83.2012 141.112C82.5215 141.821 81.6895 142.176 80.7051 142.176C79.75 142.176 78.9707 141.903 78.3672 141.358C77.7637 140.813 77.4619 140.14 77.4619 139.337C77.4619 138.323 77.8369 137.547 78.5869 137.008C79.3428 136.463 80.4209 136.19 81.8213 136.19H83.1309V135.566C83.1309 135.074 82.9932 134.682 82.7178 134.389C82.4424 134.09 82.0234 133.94 81.4609 133.94C80.9746 133.94 80.5762 134.063 80.2656 134.31C79.9551 134.55 79.7998 134.857 79.7998 135.232H77.6641C77.6641 134.711 77.8369 134.225 78.1826 133.773C78.5283 133.316 78.9971 132.959 79.5889 132.701C80.1865 132.443 80.8516 132.314 81.584 132.314C82.6973 132.314 83.585 132.596 84.2471 133.158C84.9092 133.715 85.249 134.5 85.2666 135.514V139.803C85.2666 140.658 85.3867 141.341 85.627 141.851V142H83.4473ZM81.1006 140.462C81.5225 140.462 81.918 140.359 82.2871 140.154C82.6621 139.949 82.9434 139.674 83.1309 139.328V137.535H81.9795C81.1885 137.535 80.5938 137.673 80.1953 137.948C79.7969 138.224 79.5977 138.613 79.5977 139.117C79.5977 139.527 79.7324 139.855 80.002 140.102C80.2773 140.342 80.6436 140.462 81.1006 140.462ZM95.8486 137.342C95.8486 138.818 95.5176 139.993 94.8555 140.866C94.1992 141.739 93.2939 142.176 92.1396 142.176C91.0264 142.176 90.1592 141.774 89.5381 140.972L89.4326 142H87.499V128.5H89.6348V133.404C90.25 132.678 91.0791 132.314 92.1221 132.314C93.2822 132.314 94.1934 132.745 94.8555 133.606C95.5176 134.468 95.8486 135.672 95.8486 137.219V137.342ZM93.7129 137.157C93.7129 136.126 93.5312 135.353 93.168 134.837C92.8047 134.321 92.2773 134.063 91.5859 134.063C90.6602 134.063 90.0098 134.468 89.6348 135.276V139.196C90.0156 140.022 90.6719 140.436 91.6035 140.436C92.2715 140.436 92.7871 140.187 93.1504 139.688C93.5137 139.19 93.7012 138.438 93.7129 137.43V137.157ZM97.2461 137.157C97.2461 136.226 97.4307 135.388 97.7998 134.644C98.1689 133.894 98.6875 133.319 99.3555 132.921C100.023 132.517 100.791 132.314 101.658 132.314C102.941 132.314 103.981 132.728 104.778 133.554C105.581 134.38 106.015 135.476 106.079 136.841L106.088 137.342C106.088 138.279 105.906 139.117 105.543 139.855C105.186 140.594 104.67 141.165 103.996 141.569C103.328 141.974 102.555 142.176 101.676 142.176C100.334 142.176 99.2588 141.73 98.4502 140.84C97.6475 139.943 97.2461 138.751 97.2461 137.263V137.157ZM99.3818 137.342C99.3818 138.32 99.584 139.088 99.9883 139.645C100.393 140.195 100.955 140.471 101.676 140.471C102.396 140.471 102.956 140.189 103.354 139.627C103.759 139.064 103.961 138.241 103.961 137.157C103.961 136.196 103.753 135.435 103.337 134.872C102.927 134.31 102.367 134.028 101.658 134.028C100.961 134.028 100.407 134.307 99.9971 134.863C99.5869 135.414 99.3818 136.24 99.3818 137.342ZM110.57 130.179V132.49H112.249V134.072H110.57V139.381C110.57 139.744 110.641 140.008 110.781 140.172C110.928 140.33 111.186 140.409 111.555 140.409C111.801 140.409 112.05 140.38 112.302 140.321V141.974C111.815 142.108 111.347 142.176 110.896 142.176C109.255 142.176 108.435 141.271 108.435 139.46V134.072H106.87V132.49H108.435V130.179H110.57Z" fill="#B9B9B9"/>
<circle cx="56" cy="41" r="41" fill="url(#paint0_linear)"/>
<path d="M55.8253 67.5491C54.5745 67.5491 53.5606 66.5358 53.5606 65.2859C53.5606 64.036 54.5745 63.0227 55.8253 63.0227C57.0761 63.0227 58.0901 64.036 58.0901 65.2859C58.0901 66.5358 57.0761 67.5491 55.8253 67.5491Z" fill="white"/>
<path d="M41.2434 33.3299C41.3045 25.3404 47.823 18.8599 55.8268 18.8599C63.8683 18.8599 70.4106 25.4022 70.4106 33.4437C70.4106 34.4698 69.5788 35.3015 68.5528 35.3015C67.5267 35.3015 66.695 34.4698 66.695 33.4437C66.695 27.4509 61.8195 22.5755 55.8268 22.5755C49.834 22.5755 44.9585 27.4509 44.9585 33.4437C44.9585 33.4768 44.9577 33.5096 44.9559 33.5423C44.9936 37.8675 47.578 41.749 51.5623 43.4501C55.2815 45.038 57.6846 48.7147 57.6846 52.8171V57.1308C57.6846 58.1569 56.8528 58.9886 55.8268 58.9886C54.8007 58.9886 53.9689 58.1569 53.9689 57.1308V52.8171C53.9689 50.2053 52.4517 47.87 50.1034 46.8674C44.7177 44.568 41.2386 39.2988 41.24 33.4432C41.24 33.4051 41.2412 33.3674 41.2434 33.3299Z" fill="white"/>
<defs>
<linearGradient id="paint0_linear" x1="29.5" y1="-129" x2="68" y2="125.5" gradientUnits="userSpaceOnUse">
<stop offset="0.27321" stop-color="#6C63FF"/>
<stop offset="1" stop-color="#71BBFF"/>
</linearGradient>
</defs>
</svg>
