<svg width="367" height="252" viewBox="0 0 367 252" fill="none" xmlns="http://www.w3.org/2000/svg">
<path d="M1.9573 143.684H107.652C108.171 143.683 108.668 143.467 109.035 143.083C109.402 142.698 109.609 142.177 109.609 141.634V93.0562C109.609 92.5128 109.402 91.9917 109.035 91.6074C108.668 91.2232 108.171 91.007 107.652 91.0063H1.9573C1.43838 91.007 0.940887 91.2232 0.573953 91.6074C0.20702 91.9917 0.000614377 92.5128 4.98974e-06 93.0562V141.634C0.000613407 142.177 0.20702 142.698 0.573953 143.083C0.940887 143.467 1.43838 143.683 1.9573 143.684Z" fill="#6C63FF"/>
<path d="M86.1271 107.938C86.3018 107.938 86.4748 107.974 86.6363 108.044C86.7978 108.114 86.9445 108.216 87.0682 108.345C87.1918 108.475 87.2899 108.628 87.3568 108.797C87.4237 108.966 87.4581 109.147 87.4581 109.33C87.4581 109.513 87.4237 109.694 87.3568 109.863C87.2899 110.032 87.1918 110.186 87.0682 110.315C86.9445 110.444 86.7978 110.547 86.6363 110.617C86.4748 110.686 86.3018 110.722 86.1271 110.722H23.482C23.1295 110.722 22.7915 110.575 22.5423 110.314C22.2931 110.053 22.1531 109.699 22.1531 109.33C22.1531 108.961 22.2931 108.607 22.5423 108.346C22.7915 108.085 23.1295 107.938 23.482 107.938H86.1271Z" fill="white"/>
<path d="M71.246 115.966C71.4207 115.966 71.5938 116.001 71.7552 116.071C71.9167 116.141 72.0635 116.243 72.1871 116.373C72.3107 116.502 72.4088 116.655 72.4757 116.824C72.5427 116.993 72.5771 117.175 72.5771 117.358C72.5771 117.54 72.5427 117.722 72.4757 117.891C72.4088 118.06 72.3107 118.213 72.1871 118.342C72.0635 118.472 71.9167 118.574 71.7552 118.644C71.5938 118.714 71.4207 118.749 71.246 118.749H8.60093C8.2485 118.749 7.91049 118.603 7.66129 118.342C7.41208 118.081 7.2721 117.727 7.2721 117.358C7.2721 116.988 7.41208 116.634 7.66129 116.373C7.91049 116.112 8.2485 115.966 8.60093 115.966H71.246Z" fill="white"/>
<path d="M86.1271 123.968C86.4795 123.968 86.8175 124.115 87.0667 124.376C87.3159 124.637 87.4559 124.991 87.4559 125.36C87.4559 125.729 87.3159 126.083 87.0667 126.344C86.8175 126.605 86.4795 126.752 86.1271 126.752H59.1707C58.8183 126.752 58.4803 126.605 58.2311 126.344C57.9819 126.083 57.8418 125.729 57.8418 125.36C57.8418 124.991 57.9819 124.637 58.2311 124.376C58.4803 124.115 58.8183 123.968 59.1707 123.968H86.1271Z" fill="white"/>
<path d="M220.889 223.1H150.531C150.186 223.099 149.854 222.884 149.61 222.5C149.366 222.117 149.228 221.597 149.228 221.055V193.658C149.228 193.116 149.366 192.596 149.61 192.212C149.854 191.829 150.186 191.613 150.531 191.613H220.889C221.235 191.613 221.566 191.829 221.81 192.212C222.054 192.596 222.192 193.116 222.192 193.658V221.055C222.192 221.597 222.054 222.117 221.81 222.5C221.566 222.884 221.235 223.099 220.889 223.1V223.1ZM150.531 192.431C150.324 192.431 150.125 192.56 149.978 192.79C149.832 193.021 149.749 193.332 149.749 193.658V221.055C149.749 221.38 149.832 221.692 149.978 221.922C150.125 222.152 150.324 222.282 150.531 222.282H220.889C221.097 222.282 221.295 222.152 221.442 221.922C221.588 221.692 221.671 221.38 221.671 221.055V193.658C221.671 193.332 221.588 193.021 221.442 192.79C221.295 192.56 221.097 192.431 220.889 192.431H150.531Z" fill="#E6E6E6"/>
<path d="M161.511 214.652C164.447 214.652 166.827 210.956 166.827 206.396C166.827 201.837 164.447 198.141 161.511 198.141C158.575 198.141 156.195 201.837 156.195 206.396C156.195 210.956 158.575 214.652 161.511 214.652Z" fill="#E6E6E6"/>
<path d="M173.58 200.828C173.345 200.829 173.12 200.971 172.953 201.223C172.787 201.475 172.694 201.816 172.694 202.172C172.694 202.528 172.787 202.87 172.953 203.122C173.12 203.374 173.345 203.516 173.58 203.516H215.438C215.673 203.516 215.899 203.375 216.066 203.123C216.232 202.871 216.326 202.529 216.326 202.172C216.326 201.816 216.232 201.474 216.066 201.222C215.899 200.97 215.673 200.828 215.438 200.828H173.58Z" fill="#E6E6E6"/>
<path d="M173.582 209.276C173.347 209.276 173.121 209.418 172.954 209.67C172.788 209.922 172.694 210.264 172.694 210.62C172.694 210.977 172.788 211.318 172.954 211.57C173.121 211.822 173.347 211.964 173.582 211.964H191.605C191.84 211.964 192.066 211.822 192.233 211.57C192.4 211.318 192.493 210.977 192.493 210.62C192.493 210.264 192.4 209.922 192.233 209.67C192.066 209.418 191.84 209.276 191.605 209.276H173.582Z" fill="#E6E6E6"/>
<path d="M138.451 31.9419H32.7563C32.2374 31.9413 31.7399 31.7251 31.373 31.3408C31.006 30.9566 30.7996 30.4355 30.799 29.8921V2.43391C30.7996 1.89045 31.006 1.36943 31.373 0.985147C31.7399 0.600862 32.2374 0.384672 32.7563 0.384033H138.451C138.97 0.384672 139.467 0.600862 139.834 0.985147C140.201 1.36943 140.407 1.89045 140.408 2.43391V29.8921C140.407 30.4355 140.201 30.9566 139.834 31.3408C139.467 31.7251 138.97 31.9413 138.451 31.9419V31.9419ZM32.7563 1.20398C32.445 1.20433 32.1464 1.33403 31.9263 1.56461C31.7061 1.79519 31.5823 2.10782 31.5819 2.43391V29.8921C31.5823 30.2182 31.7061 30.5308 31.9263 30.7614C32.1464 30.992 32.445 31.1217 32.7563 31.122H138.451C138.762 31.1217 139.061 30.992 139.281 30.7614C139.501 30.5308 139.625 30.2182 139.625 29.8921V2.43391C139.625 2.10782 139.501 1.79519 139.281 1.56461C139.061 1.33403 138.762 1.20433 138.451 1.20398H32.7563Z" fill="#E6E6E6"/>
<path d="M49.179 23.4597C53.5823 23.4597 57.152 19.7212 57.152 15.1096C57.152 10.498 53.5823 6.75952 49.179 6.75952C44.7756 6.75952 41.2059 10.498 41.2059 15.1096C41.2059 19.7212 44.7756 23.4597 49.179 23.4597Z" fill="#E6E6E6"/>
<path d="M67.5929 9.54272C67.2409 9.54334 66.9035 9.69024 66.6547 9.95116C66.406 10.2121 66.2663 10.5657 66.2663 10.9344C66.2663 11.3031 66.406 11.6567 66.6547 11.9177C66.9035 12.1786 67.2409 12.3255 67.5929 12.3261H130.238C130.59 12.3261 130.928 12.1795 131.178 11.9185C131.427 11.6575 131.567 11.3035 131.567 10.9344C131.567 10.5653 131.427 10.2113 131.178 9.95034C130.928 9.68935 130.59 9.54272 130.238 9.54272H67.5929Z" fill="#E6E6E6"/>
<path d="M67.5929 17.8931C67.2404 17.8931 66.9025 18.0397 66.6532 18.3007C66.404 18.5617 66.264 18.9156 66.264 19.2847C66.264 19.6538 66.404 20.0078 66.6532 20.2688C66.9025 20.5298 67.2404 20.6764 67.5929 20.6764H94.5493C94.9017 20.6764 95.2397 20.5298 95.4889 20.2688C95.7381 20.0078 95.8781 19.6538 95.8781 19.2847C95.8781 18.9156 95.7381 18.5617 95.4889 18.3007C95.2397 18.0397 94.9017 17.8931 94.5493 17.8931H67.5929Z" fill="#E6E6E6"/>
<path d="M203.297 151.293H132.932C132.586 151.293 132.255 151.196 132.011 151.024C131.766 150.853 131.629 150.62 131.629 150.377V108.051C131.629 107.808 131.766 107.575 132.011 107.403C132.255 107.231 132.586 107.134 132.932 107.134H203.297C203.642 107.134 203.973 107.231 204.218 107.403C204.462 107.575 204.599 107.808 204.6 108.051V150.377C204.599 150.62 204.462 150.853 204.218 151.024C203.973 151.196 203.642 151.293 203.297 151.293V151.293ZM132.932 107.501C132.724 107.501 132.526 107.559 132.379 107.662C132.233 107.765 132.15 107.905 132.15 108.051V150.377C132.15 150.522 132.233 150.662 132.379 150.765C132.526 150.868 132.724 150.926 132.932 150.927H203.297C203.504 150.926 203.703 150.868 203.849 150.765C203.996 150.662 204.078 150.522 204.079 150.377V108.051C204.078 107.905 203.996 107.765 203.849 107.662C203.703 107.559 203.504 107.501 203.297 107.501L132.932 107.501Z" fill="#E6E6E6"/>
<path d="M143.865 147.5C146.796 147.5 149.173 145.829 149.173 143.766C149.173 141.704 146.796 140.033 143.865 140.033C140.933 140.033 138.557 141.704 138.557 143.766C138.557 145.829 140.933 147.5 143.865 147.5Z" fill="#E6E6E6"/>
<path d="M156.124 141.277C155.889 141.277 155.664 141.343 155.498 141.46C155.332 141.576 155.239 141.735 155.239 141.9C155.239 142.065 155.332 142.223 155.498 142.34C155.664 142.456 155.889 142.522 156.124 142.522H197.829C198.064 142.522 198.289 142.456 198.455 142.34C198.621 142.223 198.714 142.065 198.714 141.9C198.714 141.735 198.621 141.576 198.455 141.46C198.289 141.343 198.064 141.277 197.829 141.277H156.124Z" fill="#E6E6E6"/>
<path d="M156.124 145.011C155.889 145.011 155.664 145.077 155.498 145.193C155.332 145.31 155.239 145.468 155.239 145.633C155.239 145.798 155.332 145.957 155.498 146.073C155.664 146.19 155.889 146.256 156.124 146.256H174.07C174.304 146.256 174.529 146.19 174.695 146.073C174.861 145.957 174.954 145.798 174.954 145.633C174.954 145.468 174.861 145.31 174.695 145.193C174.529 145.077 174.304 145.011 174.07 145.011H156.124Z" fill="#E6E6E6"/>
<path d="M270.394 44.1592H200.029C199.684 44.1589 199.353 44.0623 199.108 43.8904C198.864 43.7186 198.727 43.4856 198.726 43.2426V0.9166C198.727 0.673591 198.864 0.440615 199.108 0.268781C199.353 0.0969475 199.684 0.000285829 200.029 0H270.394C270.74 0.000285829 271.071 0.0969475 271.315 0.268781C271.56 0.440615 271.697 0.673591 271.697 0.9166V43.2426C271.697 43.4856 271.56 43.7186 271.315 43.8904C271.071 44.0623 270.74 44.1589 270.394 44.1592V44.1592ZM200.029 0.36664C199.822 0.366798 199.623 0.42479 199.477 0.527895C199.33 0.630999 199.248 0.770792 199.248 0.916603V43.2426C199.248 43.3884 199.33 43.5282 199.477 43.6313C199.623 43.7344 199.822 43.7924 200.029 43.7926H270.394C270.602 43.7924 270.8 43.7344 270.947 43.6313C271.094 43.5282 271.176 43.3884 271.176 43.2426V0.9166C271.176 0.770789 271.094 0.630994 270.947 0.52789C270.8 0.424785 270.602 0.366793 270.394 0.366635L200.029 0.36664Z" fill="#E6E6E6"/>
<path d="M210.963 40.3662C213.894 40.3662 216.271 38.6945 216.271 36.6324C216.271 34.5703 213.894 32.8987 210.963 32.8987C208.031 32.8987 205.655 34.5703 205.655 36.6324C205.655 38.6945 208.031 40.3662 210.963 40.3662Z" fill="#E6E6E6"/>
<path d="M223.222 34.1436C222.987 34.1436 222.762 34.2091 222.596 34.3258C222.43 34.4425 222.337 34.6008 222.337 34.7658C222.337 34.9309 222.43 35.0892 222.596 35.2059C222.762 35.3226 222.987 35.3881 223.222 35.3881H264.927C265.162 35.3881 265.387 35.3226 265.552 35.2059C265.718 35.0892 265.812 34.9309 265.812 34.7658C265.812 34.6008 265.718 34.4425 265.552 34.3258C265.387 34.2091 265.162 34.1436 264.927 34.1436H223.222Z" fill="#E6E6E6"/>
<path d="M223.222 37.8772C222.987 37.8772 222.762 37.9428 222.596 38.0595C222.43 38.1762 222.337 38.3345 222.337 38.4995C222.337 38.6645 222.43 38.8228 222.596 38.9395C222.762 39.0562 222.987 39.1218 223.222 39.1218H241.167C241.402 39.1218 241.627 39.0562 241.793 38.9395C241.959 38.8228 242.052 38.6645 242.052 38.4995C242.052 38.3345 241.959 38.1762 241.793 38.0595C241.627 37.9428 241.402 37.8772 241.167 37.8772H223.222Z" fill="#E6E6E6"/>
<path d="M70.5246 152.366L71.6897 162.081C71.7846 162.872 72.0549 163.629 72.479 164.291C72.9032 164.953 73.4694 165.501 74.1323 165.893C74.7952 166.285 75.5365 166.508 76.2968 166.546C77.0571 166.584 77.8152 166.435 78.5107 166.111V166.111C79.1274 165.824 79.6805 165.405 80.1349 164.883C80.5892 164.36 80.935 163.744 81.1504 163.074C81.3657 162.404 81.4459 161.695 81.3859 160.99C81.3258 160.286 81.1269 159.603 80.8016 158.983L75.9019 149.653L74.2998 109.537L63.9385 112.068L70.5246 152.366Z" fill="#FFB8B8"/>
<path d="M109.333 242.423L101.266 243.191L96.4996 173.688L96.3163 191.544L78.7169 240.695L71.7505 234.935L83.3001 185.976L77.8003 158.713H113.732L109.333 242.423Z" fill="#2F2E41"/>
<path d="M117.331 251.816L102.336 251.433C101.725 251.48 101.112 251.381 100.542 251.145C99.9726 250.909 99.4614 250.54 99.0468 250.068C98.6323 249.595 98.3251 249.031 98.1484 248.416C97.9716 247.802 97.9298 247.154 98.0262 246.52L98.6407 242.476C98.7579 241.705 99.1208 240.998 99.6705 240.47C100.22 239.942 100.924 239.624 101.668 239.569V239.569C104.227 242.343 106.875 241.933 109.592 238.975L115.774 245.543L116.697 245.413C117.427 245.31 118.168 245.485 118.785 245.906C119.403 246.328 119.855 246.967 120.06 247.708C120.187 248.169 120.215 248.653 120.141 249.127C120.066 249.6 119.892 250.05 119.631 250.443C119.369 250.837 119.027 251.165 118.629 251.402C118.232 251.64 117.788 251.781 117.331 251.816V251.816Z" fill="#2F2E41"/>
<path d="M83.1756 251.297L68.1376 245.355C67.5248 245.113 66.9722 244.728 66.5212 244.231C66.0702 243.734 65.7324 243.136 65.5332 242.482C65.334 241.829 65.2784 241.137 65.3707 240.458C65.463 239.778 65.7008 239.13 66.0662 238.561L68.3979 234.928C68.8427 234.235 69.4983 233.72 70.2579 233.467C71.0176 233.214 71.8368 233.237 72.5822 233.534V233.534C73.8735 237.429 76.6168 238.278 80.5221 236.689L84.3577 244.479L85.3087 244.787C86.0611 245.031 86.7047 245.55 87.1225 246.249C87.5403 246.949 87.7045 247.782 87.5853 248.597C87.5111 249.104 87.3299 249.587 87.0547 250.011C86.7796 250.435 86.4175 250.789 85.9949 251.048C85.5723 251.307 85.0999 251.463 84.6121 251.506C84.1244 251.549 83.6336 251.478 83.1756 251.297Z" fill="#2F2E41"/>
<path d="M96.4995 71.9303C101.764 71.9303 106.033 67.4604 106.033 61.9465C106.033 56.4326 101.764 51.9626 96.4995 51.9626C91.2346 51.9626 86.9666 56.4326 86.9666 61.9465C86.9666 67.4604 91.2346 71.9303 96.4995 71.9303Z" fill="#FFB8B8"/>
<path d="M97.5996 80.3781L81.1002 79.9941C85.6338 74.741 88.3878 69.261 88.7999 63.4824H97.5996V80.3781Z" fill="#FFB8B8"/>
<path d="M114.832 164.088C99.2576 159.903 84.6441 157.083 75.6003 162.168C77.1842 144.731 75.3522 122.472 69.9175 99.207C68.1523 91.6505 69.3496 84.8414 75.7837 80.9539L84.4 75.77L97.5996 76.154L104.486 80.1443C107.854 81.9066 110.581 84.7719 112.252 88.3049C113.923 91.8379 114.448 95.8455 113.746 99.7191C110.046 120.112 112.045 142.122 114.832 164.088Z" fill="#3F3D56"/>
<path d="M118.132 151.801L119.424 161.498C119.529 162.288 119.457 163.092 119.212 163.847C118.967 164.602 118.557 165.286 118.014 165.845C117.472 166.404 116.812 166.822 116.087 167.066C115.363 167.31 114.593 167.373 113.841 167.25V167.25C113.175 167.141 112.537 166.888 111.968 166.507C111.399 166.127 110.912 165.626 110.537 165.038C110.163 164.45 109.909 163.787 109.792 163.091C109.674 162.395 109.697 161.681 109.856 160.994L112.266 150.649L103.833 111.481L114.466 111.097L118.132 151.801Z" fill="#FFB8B8"/>
<path d="M79.2669 115.321L62.0341 114.169C63.3805 96.4152 67.212 86.7096 73.0337 83.45L79.2669 91.1298V115.321Z" fill="#3F3D56"/>
<path d="M103.099 58.4903C99.7408 57.365 97.9977 64.5775 93.0164 69.0501C91.8841 70.0668 89.0587 66.1025 88.0666 67.3221L86.4624 62.2086C84.5591 56.1417 87.9888 49.5279 93.9521 48.1948C94.1104 48.1594 94.2701 48.1277 94.4312 48.0995C97.032 47.6457 99.7013 48.2145 101.926 49.6966C104.151 51.1788 105.774 53.4696 106.484 56.1291C106.532 56.3228 106.543 56.5249 106.515 56.7231C106.487 56.9213 106.421 57.1114 106.32 57.282C106.22 57.4527 106.088 57.6002 105.931 57.7157C105.775 57.8313 105.598 57.9124 105.411 57.9543L103.099 58.4903Z" fill="#2F2E41"/>
<path d="M118.132 111.866L101.999 115.706L101.266 88.0581L110.433 88.4421L118.132 111.866Z" fill="#3F3D56"/>
<path d="M294.504 251.232H23.8326V252H294.504V251.232Z" fill="#3F3D56"/>
<path d="M365.043 70.3413H259.348C258.829 70.3407 258.332 70.1245 257.965 69.7402C257.598 69.356 257.391 68.8349 257.391 68.2915V19.7137C257.391 19.1702 257.598 18.6492 257.965 18.2649C258.332 17.8806 258.829 17.6645 259.348 17.6638H365.043C365.562 17.6645 366.059 17.8806 366.426 18.2649C366.793 18.6492 366.999 19.1702 367 19.7137V68.2915C366.999 68.8349 366.793 69.356 366.426 69.7402C366.059 70.1245 365.562 70.3407 365.043 70.3413Z" fill="#6C63FF"/>
<path d="M280.873 34.5959C280.698 34.5956 280.525 34.6314 280.364 34.7012C280.202 34.771 280.055 34.8735 279.932 35.0027C279.808 35.132 279.71 35.2855 279.643 35.4545C279.576 35.6235 279.542 35.8047 279.542 35.9876C279.542 36.1706 279.576 36.3517 279.643 36.5207C279.71 36.6897 279.808 36.8433 279.932 36.9725C280.055 37.1018 280.202 37.2042 280.364 37.274C280.525 37.3438 280.698 37.3796 280.873 37.3793H343.518C343.87 37.3793 344.208 37.2327 344.458 36.9717C344.707 36.7107 344.847 36.3567 344.847 35.9876C344.847 35.6185 344.707 35.2646 344.458 35.0036C344.208 34.7426 343.87 34.5959 343.518 34.5959H280.873Z" fill="white"/>
<path d="M295.754 42.6235C295.579 42.6232 295.406 42.659 295.245 42.7288C295.083 42.7986 294.936 42.9011 294.813 43.0303C294.689 43.1596 294.591 43.3131 294.524 43.4821C294.457 43.6511 294.423 43.8323 294.423 44.0152C294.423 44.1982 294.457 44.3793 294.524 44.5483C294.591 44.7173 294.689 44.8708 294.813 45.0001C294.936 45.1294 295.083 45.2318 295.245 45.3016C295.406 45.3714 295.579 45.4072 295.754 45.4069H358.399C358.751 45.4069 359.089 45.2603 359.339 44.9993C359.588 44.7383 359.728 44.3843 359.728 44.0152C359.728 43.6461 359.588 43.2921 359.339 43.0312C359.089 42.7702 358.751 42.6235 358.399 42.6235H295.754Z" fill="white"/>
<path d="M280.873 50.626C280.52 50.626 280.182 50.7726 279.933 51.0336C279.684 51.2946 279.544 51.6486 279.544 52.0176C279.544 52.3867 279.684 52.7407 279.933 53.0017C280.182 53.2627 280.52 53.4093 280.873 53.4093H307.829C308.182 53.4093 308.52 53.2627 308.769 53.0017C309.018 52.7407 309.158 52.3867 309.158 52.0176C309.158 51.6486 309.018 51.2946 308.769 51.0336C308.52 50.7726 308.182 50.626 307.829 50.626H280.873Z" fill="white"/>
<path d="M158.775 82.6292H128.895C128.748 82.6285 128.607 82.4124 128.504 82.0281C128.4 81.6438 128.341 81.1228 128.341 80.5793V32.0015C128.341 31.4581 128.4 30.937 128.504 30.5528C128.607 30.1685 128.748 29.9523 128.895 29.9517H158.775C158.922 29.9523 159.062 30.1685 159.166 30.5528C159.27 30.937 159.328 31.4581 159.328 32.0015V80.5793C159.328 81.1228 159.27 81.6438 159.166 82.0281C159.062 82.4124 158.922 82.6285 158.775 82.6292Z" fill="#6C63FF"/>
<path d="M134.98 46.8838C134.93 46.8835 134.881 46.9193 134.836 46.9891C134.79 47.0589 134.749 47.1613 134.714 47.2906C134.679 47.4198 134.651 47.5734 134.632 47.7424C134.613 47.9114 134.603 48.0925 134.603 48.2755C134.603 48.4584 134.613 48.6396 134.632 48.8086C134.651 48.9776 134.679 49.1311 134.714 49.2604C134.749 49.3896 134.79 49.4921 134.836 49.5619C134.881 49.6317 134.93 49.6675 134.98 49.6672H152.69C152.79 49.6672 152.885 49.5205 152.956 49.2595C153.026 48.9985 153.066 48.6446 153.066 48.2755C153.066 47.9064 153.026 47.5524 152.956 47.2914C152.885 47.0304 152.79 46.8838 152.69 46.8838H134.98Z" fill="white"/>
<path d="M139.187 54.9111C139.137 54.9108 139.088 54.9466 139.043 55.0164C138.997 55.0862 138.956 55.1887 138.921 55.3179C138.886 55.4472 138.858 55.6007 138.839 55.7697C138.82 55.9387 138.81 56.1199 138.81 56.3028C138.81 56.4858 138.82 56.6669 138.839 56.8359C138.858 57.0049 138.886 57.1584 138.921 57.2877C138.956 57.417 138.997 57.5194 139.043 57.5892C139.088 57.659 139.137 57.6948 139.187 57.6945H156.897C156.996 57.6945 157.092 57.5479 157.163 57.2869C157.233 57.0259 157.273 56.6719 157.273 56.3028C157.273 55.9337 157.233 55.5797 157.163 55.3188C157.092 55.0578 156.996 54.9111 156.897 54.9111H139.187Z" fill="white"/>
<path d="M134.98 62.9136C134.88 62.9136 134.785 63.0602 134.714 63.3212C134.644 63.5822 134.604 63.9361 134.604 64.3052C134.604 64.6743 134.644 65.0283 134.714 65.2893C134.785 65.5503 134.88 65.6969 134.98 65.6969H142.6C142.7 65.6969 142.796 65.5503 142.866 65.2893C142.937 65.0283 142.976 64.6743 142.976 64.3052C142.976 63.9361 142.937 63.5822 142.866 63.3212C142.796 63.0602 142.7 62.9136 142.6 62.9136H134.98Z" fill="white"/>
<path d="M265.341 211.267H235.46C235.314 211.266 235.173 211.05 235.069 210.666C234.965 210.281 234.907 209.76 234.907 209.217V160.639C234.907 160.096 234.965 159.575 235.069 159.19C235.173 158.806 235.314 158.59 235.46 158.589H265.341C265.487 158.59 265.628 158.806 265.732 159.19C265.836 159.575 265.894 160.096 265.894 160.639V209.217C265.894 209.76 265.836 210.281 265.732 210.666C265.628 211.05 265.487 211.266 265.341 211.267Z" fill="#6C63FF"/>
<path d="M241.545 175.521C241.496 175.521 241.447 175.557 241.401 175.627C241.356 175.697 241.314 175.799 241.279 175.928C241.244 176.058 241.217 176.211 241.198 176.38C241.179 176.549 241.169 176.73 241.169 176.913C241.169 177.096 241.179 177.277 241.198 177.446C241.217 177.615 241.244 177.769 241.279 177.898C241.314 178.027 241.356 178.13 241.401 178.2C241.447 178.269 241.496 178.305 241.545 178.305H259.256C259.355 178.305 259.451 178.158 259.521 177.897C259.592 177.636 259.631 177.282 259.631 176.913C259.631 176.544 259.592 176.19 259.521 175.929C259.451 175.668 259.355 175.521 259.256 175.521H241.545Z" fill="white"/>
<path d="M245.752 183.549C245.703 183.549 245.654 183.584 245.608 183.654C245.563 183.724 245.521 183.826 245.486 183.956C245.451 184.085 245.424 184.238 245.405 184.407C245.386 184.576 245.376 184.758 245.376 184.941C245.376 185.123 245.386 185.305 245.405 185.474C245.424 185.643 245.451 185.796 245.486 185.925C245.521 186.055 245.563 186.157 245.608 186.227C245.654 186.297 245.703 186.332 245.752 186.332H263.463C263.562 186.332 263.658 186.186 263.728 185.925C263.799 185.664 263.838 185.31 263.838 184.941C263.838 184.571 263.799 184.217 263.728 183.956C263.658 183.695 263.562 183.549 263.463 183.549H245.752Z" fill="white"/>
<path d="M241.545 191.551C241.446 191.551 241.35 191.698 241.28 191.959C241.209 192.22 241.17 192.574 241.17 192.943C241.17 193.312 241.209 193.666 241.28 193.927C241.35 194.188 241.446 194.335 241.545 194.335H249.166C249.266 194.335 249.361 194.188 249.432 193.927C249.502 193.666 249.542 193.312 249.542 192.943C249.542 192.574 249.502 192.22 249.432 191.959C249.361 191.698 249.266 191.551 249.166 191.551H241.545Z" fill="white"/>
<path d="M96.1214 39.4646C96.1213 39.6522 95.9815 39.765 95.8563 39.7649C95.7312 39.7648 95.5915 39.6518 95.5917 39.4642C95.5918 39.2766 95.7316 39.1639 95.8568 39.164C95.9819 39.1641 96.1216 39.2771 96.1214 39.4646Z" fill="#444444" stroke="#444444"/>
<mask id="path-46-inside-1" fill="white">
<path d="M100.79 28.1656C100.771 25.3398 98.5711 23.0459 95.8679 23.0436C93.1519 23.0414 90.9407 25.3535 90.9387 28.1976C90.9384 28.5605 91.2191 28.8549 91.5657 28.8552C91.9122 28.8555 92.1934 28.5616 92.1936 28.1987C92.1951 26.0791 93.843 24.3561 95.867 24.3578C97.891 24.3595 99.5364 26.0852 99.5349 28.2048C99.5349 28.2165 99.5352 28.2281 99.5358 28.2397C99.522 29.7694 98.6482 31.1415 97.3021 31.7421C96.0455 32.3026 95.233 33.6023 95.232 35.0533L95.2309 36.579C95.2307 36.9419 95.5114 37.2363 95.8579 37.2366C96.2045 37.2369 96.4856 36.9429 96.4858 36.58L96.4869 35.0544C96.4876 34.1306 97.0006 33.305 97.7939 32.9511C99.6135 32.1393 100.79 30.2767 100.791 28.2057C100.791 28.1922 100.79 28.1788 100.79 28.1656Z"/>
</mask>
<path d="M100.79 28.1656C100.771 25.3398 98.5711 23.0459 95.8679 23.0436C93.1519 23.0414 90.9407 25.3535 90.9387 28.1976C90.9384 28.5605 91.2191 28.8549 91.5657 28.8552C91.9122 28.8555 92.1934 28.5616 92.1936 28.1987C92.1951 26.0791 93.843 24.3561 95.867 24.3578C97.891 24.3595 99.5364 26.0852 99.5349 28.2048C99.5349 28.2165 99.5352 28.2281 99.5358 28.2397C99.522 29.7694 98.6482 31.1415 97.3021 31.7421C96.0455 32.3026 95.233 33.6023 95.232 35.0533L95.2309 36.579C95.2307 36.9419 95.5114 37.2363 95.8579 37.2366C96.2045 37.2369 96.4856 36.9429 96.4858 36.58L96.4869 35.0544C96.4876 34.1306 97.0006 33.305 97.7939 32.9511C99.6135 32.1393 100.79 30.2767 100.791 28.2057C100.791 28.1922 100.79 28.1788 100.79 28.1656Z" fill="#444444"/>
<path d="M100.79 28.1656L-0.208093 28.8195L-0.191631 31.3127L-0.0521677 33.8021L100.79 28.1656ZM99.5358 28.2397L200.532 29.1625L200.559 26.1416L200.405 23.1245L99.5358 28.2397ZM97.3021 31.7421L138.461 123.98L138.462 123.98L97.3021 31.7421ZM97.7939 32.9511L138.953 125.189L138.954 125.189L97.7939 32.9511ZM100.791 28.2057L-0.209137 28.1217L-0.209145 28.1332L-0.209151 28.1447L100.791 28.2057ZM201.788 27.5117C201.432 -26.3696 158.469 -77.9043 95.9389 -77.9563L95.7969 124.044C38.6731 123.996 0.110353 77.0492 -0.208093 28.8195L201.788 27.5117ZM95.9389 -77.9563C33.1025 -78.0086 -10.0232 -26.0704 -10.0613 28.1137L191.939 28.2816C191.905 76.7773 153.201 124.091 95.7969 124.044L95.9389 -77.9563ZM-10.0613 28.1137C-10.0976 79.8165 31.0278 129.805 91.4947 129.855L91.6367 -72.1447C151.411 -72.095 191.974 -22.6954 191.939 28.2816L-10.0613 28.1137ZM91.4947 129.855C151.962 129.905 193.157 79.9854 193.194 28.2826L-8.80636 28.1147C-8.77054 -22.8622 31.8628 -72.1944 91.6367 -72.1447L91.4947 129.855ZM193.194 28.2826C193.159 77.503 153.892 125.406 95.796 125.358L95.9379 -76.6422C33.7936 -76.6938 -8.76879 -25.3447 -8.80636 28.1147L193.194 28.2826ZM95.796 125.358C37.6996 125.309 -1.49965 77.3412 -1.46506 28.1208L200.535 28.2887C200.572 -25.1707 158.082 -76.5905 95.9379 -76.6422L95.796 125.358ZM-1.46506 28.1208C-1.46621 29.7538 -1.42812 31.5027 -1.33396 33.3549L200.405 23.1245C200.498 24.9535 200.536 26.6792 200.535 28.2887L-1.46506 28.1208ZM-1.46014 27.3168C-1.13606 -8.65633 19.5777 -44.1835 56.1425 -60.496L138.462 123.98C177.719 106.466 200.18 68.1951 200.532 29.1625L-1.46014 27.3168ZM56.1426 -60.4961C16.0231 -42.5977 -5.74094 -3.51718 -5.76799 34.9694L196.232 35.1373C196.207 70.7219 176.068 107.203 138.461 123.98L56.1426 -60.4961ZM-5.76799 34.9694L-5.76906 36.495L196.231 36.6629L196.232 35.1373L-5.76799 34.9694ZM-5.76906 36.495C-5.80539 88.1978 35.32 138.186 95.7869 138.237L95.9289 -63.7634C155.703 -63.7137 196.267 -14.314 196.231 36.6629L-5.76906 36.495ZM95.7869 138.237C156.254 138.287 197.449 88.3668 197.486 36.664L-4.51414 36.4961C-4.47832 -14.4809 36.155 -63.8131 95.9289 -63.7634L95.7869 138.237ZM197.486 36.664L197.487 35.1383L-4.51306 34.9704L-4.51414 36.4961L197.486 36.664ZM197.487 35.1383C197.462 70.8071 177.405 108.035 138.953 125.189L56.635 -59.2873C16.5961 -41.4251 -4.4867 -2.54588 -4.51306 34.9704L197.487 35.1383ZM138.954 125.189C178.973 107.335 201.772 68.1502 201.791 28.2667L-0.209151 28.1447C-0.192158 -7.59681 20.2538 -43.0565 56.6343 -59.2869L138.954 125.189ZM201.791 28.2896C201.792 26.2349 201.731 24.3094 201.632 22.5291L-0.0521677 33.8021C-0.150421 32.0483 -0.210562 30.1494 -0.209137 28.1217L201.791 28.2896Z" fill="#444444" mask="url(#path-46-inside-1)"/>
</svg>
